arm26_optimize_states
version=1
nRows=11
nColumns=21
inDegrees=yes

# SIMM Motion File Header:
name arm26_optimize_states
datacolumns 21
datarows 11
otherdata 1
range 0.68044707 0.73671285
endheader
time	r_shoulder_elev	r_elbow_flex	r_shoulder_elev_u	r_elbow_flex_u	TRIlong.activation	TRIlong.fiber_length	TRIlat.activation	TRIlat.fiber_length	TRImed.activation	TRImed.fiber_length	BIClong.activation	BIClong.fiber_length	BICshort.activation	BICshort.fiber_length	BRA.activation	BRA.fiber_length	DeltAnt.activation	DeltAnt.fiber_length	DeltPost.activation	DeltPost.fiber_length
      0.68044707	      5.45730142	     -0.26467645	     -0.36493197	     30.44504709	      0.01000562	      0.14020191	      0.01000562	      0.07053029	      0.01000562	      0.06557249	      0.01000562	      0.14406764	      0.01000562	      0.14765001	      0.01000562	      0.08696566	      0.01000562	      0.17738958	      0.01000562	      0.11348406
      0.68671086	      5.45518683	     -0.07698334	     -0.31223867	     29.48546968	      0.01000518	      0.14026368	      0.01000518	      0.07059427	      0.01000518	      0.06563604	      0.01000518	      0.14404039	      0.01000518	      0.14762100	      0.01000518	      0.08697463	      0.01000518	      0.17739088	      0.01000518	      0.11348227
      0.69297466	      5.45337073	      0.10470427	     -0.26894703	     28.52624499	      0.01000478	      0.14032397	      0.01000478	      0.07065655	      0.01000478	      0.06569790	      0.01000478	      0.14401357	      0.01000478	      0.14759254	      0.01000478	      0.08698311	      0.01000478	      0.17739216	      0.01000478	      0.11348077
      0.69787266	      5.45211983	      0.24259667	     -0.24302131	     27.78006817	      0.01000449	      0.14037003	      0.01000449	      0.07070404	      0.01000449	      0.06574506	      0.01000449	      0.14399296	      0.01000449	      0.14757070	      0.01000449	      0.08698942	      0.01000449	      0.17739283	      0.01000449	      0.11347969
      0.70277066	      5.45098233	      0.37683662	     -0.22241174	     27.03442726	      0.01000421	      0.14041511	      0.01000421	      0.07075044	      0.01000421	      0.06579115	      0.01000421	      0.14397270	      0.01000421	      0.14754925	      0.01000421	      0.08699545	      0.01000421	      0.17739361	      0.01000421	      0.11347876
      0.70967227	      5.44951840	      0.55980559	     -0.20429635	     25.98977830	      0.01000386	      0.14047691	      0.01000386	      0.07081397	      0.01000386	      0.06585423	      0.01000386	      0.14394481	      0.01000386	      0.14751970	      0.01000386	      0.08700350	      0.01000386	      0.17739443	      0.01000386	      0.11347752
      0.71482728	      5.44848526	      0.69177569	     -0.19741524	     25.21113704	      0.01000361	      0.14052173	      0.01000361	      0.07086001	      0.01000361	      0.06589994	      0.01000361	      0.14392439	      0.01000361	      0.14749815	      0.01000361	      0.08700918	      0.01000361	      0.17739521	      0.01000361	      0.11347671
      0.71998229	      5.44746979	      0.81974411	     -0.19775105	     24.43800411	      0.01000338	      0.14056536	      0.01000338	      0.07090481	      0.01000338	      0.06594443	      0.01000338	      0.14390448	      0.01000338	      0.14747708	      0.01000338	      0.08701459	      0.01000338	      0.17739574	      0.01000338	      0.11347586
      0.72513730	      5.44643762	      0.94373475	     -0.20363454	     23.66740910	      0.01000316	      0.14060777	      0.01000316	      0.07094838	      0.01000316	      0.06598768	      0.01000316	      0.14388503	      0.01000316	      0.14745649	      0.01000316	      0.08701973	      0.01000316	      0.17739644	      0.01000316	      0.11347504
      0.73220341	      5.44494182	      1.10725951	     -0.22222054	     22.61969758	      0.01000288	      0.14066389	      0.01000288	      0.07100608	      0.01000288	      0.06604495	      0.01000288	      0.14385921	      0.01000288	      0.14742910	      0.01000288	      0.08702639	      0.01000288	      0.17739719	      0.01000288	      0.11347381
      0.73671285	      5.44390415	      1.20775753	     -0.23867410	     21.95306560	      0.01000272	      0.14069847	      0.01000272	      0.07104168	      0.01000272	      0.06608029	      0.01000272	      0.14384317	      0.01000272	      0.14741210	      0.01000272	      0.08703039	      0.01000272	      0.17739797	      0.01000272	      0.11347303
